<?xml version="1.0"?>
<svg xmlns="http://www.w3.org/2000/svg" xmlns:xlink="http://www.w3.org/1999/xlink" xmlns:svgjs="http://svgjs.com/svgjs" version="1.1" width="512" height="512" x="0" y="0" viewBox="0 0 479 480" style="enable-background:new 0 0 512 512" xml:space="preserve" class=""><g><path xmlns="http://www.w3.org/2000/svg" d="m152.5 104c-4.417969 0-8 3.582031-8 8v40h-24c-4.417969 0-8 3.582031-8 8v208c0 4.417969 3.582031 8 8 8h24v32c0 4.417969 3.582031 8 8 8s8-3.582031 8-8v-32h24c4.417969 0 8-3.582031 8-8v-208c0-4.417969-3.582031-8-8-8h-24v-40c0-4.417969-3.582031-8-8-8zm24 64v192h-48v-192zm0 0" fill="#ffab00" data-original="#000000" style=""/><path xmlns="http://www.w3.org/2000/svg" d="m264.5 72c-4.417969 0-8 3.582031-8 8v40h-24c-4.417969 0-8 3.582031-8 8v208c0 4.417969 3.582031 8 8 8h24v32c0 4.417969 3.582031 8 8 8s8-3.582031 8-8v-32h24c4.417969 0 8-3.582031 8-8v-208c0-4.417969-3.582031-8-8-8h-24v-40c0-4.417969-3.582031-8-8-8zm24 64v192h-48v-192zm0 0" fill="#ffab00" data-original="#000000" style=""/><path xmlns="http://www.w3.org/2000/svg" d="m376.5 168c-4.417969 0-8 3.582031-8 8v40h-24c-4.417969 0-8 3.582031-8 8v208c0 4.417969 3.582031 8 8 8h24v32c0 4.417969 3.582031 8 8 8s8-3.582031 8-8v-32h24c4.417969 0 8-3.582031 8-8v-208c0-4.417969-3.582031-8-8-8h-24v-40c0-4.417969-3.582031-8-8-8zm24 64v192h-48v-192zm0 0" fill="#ffab00" data-original="#000000" style=""/><path xmlns="http://www.w3.org/2000/svg" d="m40.5 0c-4.417969 0-8 3.582031-8 8v40h-24c-4.417969 0-8 3.582031-8 8v208c0 4.417969 3.582031 8 8 8h24v32c0 4.417969 3.582031 8 8 8s8-3.582031 8-8v-32h24c4.417969 0 8-3.582031 8-8v-208c0-4.417969-3.582031-8-8-8h-24v-40c0-4.417969-3.582031-8-8-8zm24 64v192h-48v-192zm0 0" fill="#ffab00" data-original="#000000" style=""/></g></svg>
