<?xml version="1.0"?>
<svg xmlns="http://www.w3.org/2000/svg" xmlns:xlink="http://www.w3.org/1999/xlink" xmlns:svgjs="http://svgjs.com/svgjs" version="1.1" width="512" height="512" x="0" y="0" viewBox="0 0 512 512" style="enable-background:new 0 0 512 512" xml:space="preserve"><g><path xmlns="http://www.w3.org/2000/svg" d="M67.416,193H30a5,5,0,0,0,0,10H66.784a9.878,9.878,0,0,0,8.782,5H93V189H75.566A9.99,9.99,0,0,0,67.416,193Z" fill="#ffab00" data-original="#000000" style=""/><path xmlns="http://www.w3.org/2000/svg" d="M67,136H30a5,5,0,0,0,0,10H67a9.917,9.917,0,0,0,8.563,5H93V131H75.566A9.919,9.919,0,0,0,67,136Z" fill="#ffab00" data-original="#000000" style=""/><path xmlns="http://www.w3.org/2000/svg" d="M246,435.934a9.919,9.919,0,0,0,5,8.564v37a5,5,0,0,0,10,0v-37a9.917,9.917,0,0,0,5-8.563V419H246Z" fill="#ffab00" data-original="#000000" style=""/><path xmlns="http://www.w3.org/2000/svg" d="M66.783,251H30a5,5,0,0,0,0,10H67.416a9.992,9.992,0,0,0,8.15,4H93V246H75.566A9.878,9.878,0,0,0,66.783,251Z" fill="#ffab00" data-original="#000000" style=""/><path xmlns="http://www.w3.org/2000/svg" d="M66.784,308H30a5,5,0,0,0,0,10H67.416a9.99,9.99,0,0,0,8.15,4H93V303H75.566A9.877,9.877,0,0,0,66.784,308Z" fill="#ffab00" data-original="#000000" style=""/><path xmlns="http://www.w3.org/2000/svg" d="M189,435.934a9.919,9.919,0,0,0,5,8.564v37a5,5,0,0,0,10,0v-37a9.919,9.919,0,0,0,5-8.564V419H189Z" fill="#ffab00" data-original="#000000" style=""/><path xmlns="http://www.w3.org/2000/svg" d="M132,435.934a9.919,9.919,0,0,0,5,8.564v37a5,5,0,0,0,10,0v-37a9.919,9.919,0,0,0,5-8.564V419H132Z" fill="#ffab00" data-original="#000000" style=""/><path xmlns="http://www.w3.org/2000/svg" d="M67,365H30a5,5,0,0,0,0,10H67a9.92,9.92,0,0,0,8.564,5H93V360H75.566A9.92,9.92,0,0,0,67,365Z" fill="#ffab00" data-original="#000000" style=""/><path xmlns="http://www.w3.org/2000/svg" d="M370,25.5a5,5,0,0,0-5,5v36a9.919,9.919,0,0,0-5,8.564V92h20V75.066a9.919,9.919,0,0,0-5-8.564v-36A5,5,0,0,0,370,25.5Z" fill="#ffab00" data-original="#000000" style=""/><path xmlns="http://www.w3.org/2000/svg" d="M482,136H445a9.917,9.917,0,0,0-8.563-5H419v20h17.434A9.919,9.919,0,0,0,445,146h37a5,5,0,0,0,0-10Z" fill="#ffab00" data-original="#000000" style=""/><path xmlns="http://www.w3.org/2000/svg" d="M313,25.5a5,5,0,0,0-5,5v36a9.919,9.919,0,0,0-5,8.564V92h20V75.066a9.919,9.919,0,0,0-5-8.564v-36A5,5,0,0,0,313,25.5Z" fill="#ffab00" data-original="#000000" style=""/><path xmlns="http://www.w3.org/2000/svg" d="M256,25.5a5,5,0,0,0-5,5v36a9.917,9.917,0,0,0-5,8.563V92h20V75.066a9.919,9.919,0,0,0-5-8.564v-36A5,5,0,0,0,256,25.5Z" fill="#ffab00" data-original="#000000" style=""/><path xmlns="http://www.w3.org/2000/svg" d="M142,25.5a5,5,0,0,0-5,5v36a9.919,9.919,0,0,0-5,8.564V92h20V75.066a9.919,9.919,0,0,0-5-8.564v-36A5,5,0,0,0,142,25.5Z" fill="#ffab00" data-original="#000000" style=""/><path xmlns="http://www.w3.org/2000/svg" d="M199,25.5a5,5,0,0,0-5,5v36a9.919,9.919,0,0,0-5,8.564V92h20V75.066a9.919,9.919,0,0,0-5-8.564v-36A5,5,0,0,0,199,25.5Z" fill="#ffab00" data-original="#000000" style=""/><path xmlns="http://www.w3.org/2000/svg" d="M303,435.934a9.919,9.919,0,0,0,5,8.564v37a5,5,0,0,0,10,0v-37a9.919,9.919,0,0,0,5-8.564V419H303Z" fill="#ffab00" data-original="#000000" style=""/><path xmlns="http://www.w3.org/2000/svg" d="M360,435.934a9.919,9.919,0,0,0,5,8.564v37a5,5,0,0,0,10,0v-37a9.919,9.919,0,0,0,5-8.564V419H360Z" fill="#ffab00" data-original="#000000" style=""/><path xmlns="http://www.w3.org/2000/svg" d="M386.073,102H125.927A22.927,22.927,0,0,0,103,124.927V385.073A22.927,22.927,0,0,0,125.927,408H386.073A22.927,22.927,0,0,0,409,385.073V124.927A22.927,22.927,0,0,0,386.073,102ZM125,210.011a5,5,0,0,1-10,0V156.325a5,5,0,0,1,10,0Zm0-74.685a5,5,0,0,1-10,0v-3.768a5,5,0,0,1,10,0ZM256,375.5a120,120,0,1,1,120-120A120.136,120.136,0,0,1,256,375.5Z" fill="#ffab00" data-original="#000000" style=""/><path xmlns="http://www.w3.org/2000/svg" d="M358.207,251h7.675A109.265,109.265,0,0,0,337.2,181.622l-5.392,5.142a5,5,0,0,1-7.071-7.071l5.392-5.392A109.574,109.574,0,0,0,261,145.619v7.674a5,5,0,0,1-10,0v-7.674a109.582,109.582,0,0,0-69.128,28.69l5.392,5.4a5.04,5.04,0,0,1-3.535,8.583,4.922,4.922,0,0,1-3.536-1.4l-5.392-5.267A109.265,109.265,0,0,0,146.118,251h7.675a5,5,0,0,1,0,10h-7.675A110.212,110.212,0,0,0,174.8,329.878l5.392-5.642a5,5,0,0,1,7.071,7.071l-5.392,5.392A109.574,109.574,0,0,0,251,365.381v-7.674a5,5,0,0,1,10,0v7.674a109.558,109.558,0,0,0,69.128-28.666l-5.392-5.377a4.967,4.967,0,1,1,7.071-6.977l5.392,5.517A110.212,110.212,0,0,0,365.882,261h-7.675a5,5,0,0,1,0-10ZM256,341.97a86.47,86.47,0,1,1,86.47-86.47A86.568,86.568,0,0,1,256,341.97Z" fill="#ffab00" data-original="#000000" style=""/><path xmlns="http://www.w3.org/2000/svg" d="M264.557,261H244v27h20.557a13.5,13.5,0,0,0,0-27Z" fill="#ffab00" data-original="#000000" style=""/><path xmlns="http://www.w3.org/2000/svg" d="M264.557,224H244v27h20.557a13.5,13.5,0,0,0,0-27Z" fill="#ffab00" data-original="#000000" style=""/><path xmlns="http://www.w3.org/2000/svg" d="M256,179.03a76.47,76.47,0,1,0,76.47,76.47A76.556,76.556,0,0,0,256,179.03Zm31.7,95.138a23.616,23.616,0,0,1-21.7,23.3v7.217a5,5,0,0,1-10,0V298H246v6.682a5,5,0,0,1-10,0V298h-6.939a5,5,0,0,1,0-10H234V224h-4.939a5,5,0,0,1,0-10H236v-7.682a5,5,0,1,1,10,0V214h10v-7.682a5,5,0,1,1,10,0v7.788a23.616,23.616,0,0,1,21.7,23.3,23.348,23.348,0,0,1-8.958,18.383A23.344,23.344,0,0,1,287.7,274.168Z" fill="#ffab00" data-original="#000000" style=""/><path xmlns="http://www.w3.org/2000/svg" d="M482,193H444.584a9.99,9.99,0,0,0-8.15-4H419v19h17.434a9.877,9.877,0,0,0,8.782-5H482a5,5,0,0,0,0-10Z" fill="#ffab00" data-original="#000000" style=""/><path xmlns="http://www.w3.org/2000/svg" d="M482,251H445.216a9.876,9.876,0,0,0-8.782-5H419v19h17.434a9.99,9.99,0,0,0,8.15-4H482a5,5,0,0,0,0-10Z" fill="#ffab00" data-original="#000000" style=""/><path xmlns="http://www.w3.org/2000/svg" d="M482,308H445.216a9.878,9.878,0,0,0-8.782-5H419v19h17.434a9.99,9.99,0,0,0,8.15-4H482a5,5,0,0,0,0-10Z" fill="#ffab00" data-original="#000000" style=""/><path xmlns="http://www.w3.org/2000/svg" d="M482,365H445a9.917,9.917,0,0,0-8.563-5H419v20h17.434A9.919,9.919,0,0,0,445,375h37a5,5,0,0,0,0-10Z" fill="#ffab00" data-original="#000000" style=""/></g></svg>
