<?xml version="1.0"?>
<svg xmlns="http://www.w3.org/2000/svg" xmlns:xlink="http://www.w3.org/1999/xlink" xmlns:svgjs="http://svgjs.com/svgjs" version="1.1" width="512" height="512" x="0" y="0" viewBox="0 0 512 512" style="enable-background:new 0 0 512 512" xml:space="preserve"><g><g xmlns="http://www.w3.org/2000/svg" id="solid"><path d="M260,152H240v16h31.31A11.991,11.991,0,0,0,260,152Z" fill="#ffab00" data-original="#000000" style=""/><path d="M260,112H240v24h20a12,12,0,0,0,0-24Z" fill="#ffab00" data-original="#000000" style=""/><path d="M101.96,167.975c.368.017,20.307.025,20.307.025a128.2,128.2,0,0,1,0-48H104a24.028,24.028,0,0,0-24,24c0,.161.071,2.464.071,2.464C81.171,158.219,90.554,167.454,101.96,167.975Z" fill="#ffab00" data-original="#000000" style=""/><path d="M324.318,168a80,80,0,1,0-152.64,0H224V112h-8a8,8,0,0,1,0-16h11.2V91.2a8,8,0,1,1,16,0V96h9.6V91.2a8,8,0,1,1,16,0v6.225A27.972,27.972,0,0,1,279.569,144a27.907,27.907,0,0,1,8.141,24Z" fill="#ffab00" data-original="#000000" style=""/><path d="M480,248a16.019,16.019,0,0,0-16-16H448v32h16A16.019,16.019,0,0,0,480,248Z" fill="#ffab00" data-original="#000000" style=""/><path d="M155.039,168a96.006,96.006,0,1,1,185.911,0h16.473a112.008,112.008,0,1,0-218.831,0Z" fill="#ffab00" data-original="#000000" style=""/><circle cx="256" cy="328" r="16" fill="#ffab00" data-original="#000000" style=""/><circle cx="256" cy="248" r="16" fill="#ffab00" data-original="#000000" style=""/><path d="M376,120h-2.266a128.328,128.328,0,0,1-.2,49.041A88.122,88.122,0,0,1,432,205.462V176A56.063,56.063,0,0,0,376,120Z" fill="#ffab00" data-original="#000000" style=""/><path d="M464,280H376a40,40,0,0,0,0,80h73v-.025A32.033,32.033,0,0,0,480,328V275.7A31.8,31.8,0,0,1,464,280Zm-88,57.709A17.709,17.709,0,1,1,393.709,320,17.729,17.729,0,0,1,376,337.709Z" fill="#ffab00" data-original="#000000" style=""/><path d="M360,184s-258.164-.014-258.773-.042A38.291,38.291,0,0,1,80,176.311V288h72V248a8,8,0,0,1,8-8h65.013a32,32,0,1,1,0,16H168v40a8,8,0,0,1-8,8H80v16H225.013a32,32,0,1,1,0,16H80v16h80a8,8,0,0,1,8,8v32h57.013a32,32,0,1,1,0,16H160a8,8,0,0,1-8-8V368H80v40a72.081,72.081,0,0,0,72,72H360a72.081,72.081,0,0,0,72-72V376H376a56,56,0,0,1,0-112h56v-8A72.081,72.081,0,0,0,360,184Z" fill="#ffab00" data-original="#000000" style=""/><circle cx="256" cy="400" r="16" fill="#ffab00" data-original="#000000" style=""/></g></g></svg>
