<?xml version="1.0"?>
<svg xmlns="http://www.w3.org/2000/svg" xmlns:xlink="http://www.w3.org/1999/xlink" xmlns:svgjs="http://svgjs.com/svgjs" version="1.1" width="512" height="512" x="0" y="0" viewBox="0 0 64 64" style="enable-background:new 0 0 512 512" xml:space="preserve"><g><g xmlns="http://www.w3.org/2000/svg"><path d="m57.184 27h-5.598l-2 2h-4.948c.154.65.259 1.317.311 2h5.465l2-2h4.77c.414 1.161 1.514 2 2.816 2 1.654 0 3-1.346 3-3s-1.346-3-3-3c-1.302 0-2.402.839-2.816 2z" fill="#ffab00" data-original="#000000" style=""/><path d="m60 33c-1.302 0-2.402.839-2.816 2h-4.77l-2-2h-5.465c-.052.683-.158 1.35-.311 2h4.948l2 2h5.598c.414 1.161 1.514 2 2.816 2 1.654 0 3-1.346 3-3s-1.346-3-3-3z" fill="#ffab00" data-original="#000000" style=""/><path d="m27 6.816v5.598l2 2v4.948c.65-.154 1.317-.259 2-.311v-5.465l-2-2v-4.77c1.161-.414 2-1.514 2-2.816 0-1.654-1.346-3-3-3s-3 1.346-3 3c0 1.302.839 2.402 2 2.816z" fill="#ffab00" data-original="#000000" style=""/><path d="m6.816 37h5.598l2-2h4.948c-.154-.65-.259-1.317-.311-2h-5.465l-2 2h-4.77c-.414-1.161-1.514-2-2.816-2-1.654 0-3 1.346-3 3s1.346 3 3 3c1.302 0 2.402-.839 2.816-2z" fill="#ffab00" data-original="#000000" style=""/><path d="m4 31c1.302 0 2.402-.839 2.816-2h4.77l2 2h5.465c.052-.683.158-1.35.311-2h-4.948l-2-2h-5.598c-.414-1.161-1.514-2-2.816-2-1.654 0-3 1.346-3 3s1.346 3 3 3z" fill="#ffab00" data-original="#000000" style=""/><path d="m37 57.184v-5.598l-2-2v-4.948c-.65.154-1.317.259-2 .311v5.465l2 2v4.77c-1.161.414-2 1.514-2 2.816 0 1.654 1.346 3 3 3s3-1.346 3-3c0-1.302-.839-2.402-2-2.816z" fill="#ffab00" data-original="#000000" style=""/><path d="m12 21c4.962 0 9-4.038 9-9s-4.038-9-9-9-9 4.038-9 9 4.038 9 9 9zm1-8h-2c-1.654 0-3-1.346-3-3v-3h3v-2h2v2c1.654 0 3 1.346 3 3h-2c0-.551-.449-1-1-1h-3v1c0 .551.449 1 1 1h2c1.654 0 3 1.346 3 3v3h-3v2h-2v-2c-1.654 0-3-1.346-3-3h2c0 .551.449 1 1 1h3v-1c0-.551-.449-1-1-1z" fill="#ffab00" data-original="#000000" style=""/><path d="m12 43c-4.962 0-9 4.038-9 9s4.038 9 9 9 9-4.038 9-9-4.038-9-9-9zm3 4h-2c-1.654 0-3 1.346-3 3v1h2v2h-2v4h5v2h-7v-6h-2v-2h2v-1c0-2.757 2.243-5 5-5h2z" fill="#ffab00" data-original="#000000" style=""/><path d="m32 21c-6.065 0-11 4.935-11 11s4.935 11 11 11 11-4.935 11-11-4.935-11-11-11zm5 14c0 2.206-1.794 4-4 4v2h-2v-2h-2v-14h2v-2h2v2c2.206 0 4 1.794 4 4 0 1.193-.525 2.267-1.357 3 .832.733 1.357 1.807 1.357 3z" fill="#ffab00" data-original="#000000" style=""/><path d="m33 33h-2v4h2c1.103 0 2-.897 2-2s-.897-2-2-2z" fill="#ffab00" data-original="#000000" style=""/><path d="m33 27h-2v4h2c1.103 0 2-.897 2-2s-.897-2-2-2z" fill="#ffab00" data-original="#000000" style=""/><path d="m52 21c4.962 0 9-4.038 9-9s-4.038-9-9-9-9 4.038-9 9 4.038 9 9 9zm-6-8h2v-2h-2v-2h2c0-2.206 1.794-4 4-4s4 1.794 4 4h-2c0-1.103-.897-2-2-2s-2 .897-2 2h2v2h-2v2h2v2h-2c0 1.103.897 2 2 2s2-.897 2-2h2c0 2.206-1.794 4-4 4s-4-1.794-4-4h-2z" fill="#ffab00" data-original="#000000" style=""/><path d="m52 43c-4.962 0-9 4.038-9 9s4.038 9 9 9 9-4.038 9-9-4.038-9-9-9zm3 8v2h-2v2h2v2h-2v2h-2v-2h-2v-2h2v-2h-2v-2h2v-.586l-3.707-3.707 1.414-1.414 3.293 3.293 3.293-3.293 1.414 1.414-3.707 3.707v.586z" fill="#ffab00" data-original="#000000" style=""/><path d="m35 14.414 2-2v-5.598c1.161-.414 2-1.514 2-2.816 0-1.654-1.346-3-3-3s-3 1.346-3 3c0 1.302.839 2.402 2 2.816v4.77l-2 2v5.465c.683.052 1.35.158 2 .311z" fill="#ffab00" data-original="#000000" style=""/><path d="m29 49.586-2 2v5.598c-1.161.414-2 1.514-2 2.816 0 1.654 1.346 3 3 3s3-1.346 3-3c0-1.302-.839-2.402-2-2.816v-4.77l2-2v-5.465c-.683-.052-1.35-.158-2-.311z" fill="#ffab00" data-original="#000000" style=""/></g></g></svg>
