<?xml version="1.0"?>
<svg xmlns="http://www.w3.org/2000/svg" xmlns:xlink="http://www.w3.org/1999/xlink" xmlns:svgjs="http://svgjs.com/svgjs" version="1.1" width="512" height="512" x="0" y="0" viewBox="0 0 480.106 480.106" style="enable-background:new 0 0 512 512" xml:space="preserve" class=""><g><g xmlns="http://www.w3.org/2000/svg"><path d="m261.895 135.051h-64.034c-1.991 0-3.679 1.465-3.96 3.436l-3.989 28c-.343 2.409 1.526 4.564 3.96 4.564h72.128c16.371 0 29.757 6.082 38.711 17.588 29.129 37.429 1.54 120.412-52.799 120.412h-78.515c-1.989 0-3.675 1.461-3.959 3.429l-4.039 28c-.348 2.411 1.523 4.571 3.959 4.571h80.044c129.989 0 149.659-210 12.493-210z" fill="#ffab00" data-original="#000000" style="" class=""/><path d="m214.337 239.773 1.61-13.239c.29-2.383-1.57-4.483-3.971-4.483h-65.339c-9.935 0-18.308 7.416-19.507 17.278l-1.61 13.239c-.29 2.383 1.57 4.483 3.971 4.483h65.339c9.935 0 18.307-7.415 19.507-17.278z" fill="#ffab00" data-original="#000000" style="" class=""/><path d="m409.764 70.341c-93.772-93.772-245.817-93.862-339.6.17-93.53 93.778-93.624 245.446.18 339.25 93.787 93.787 245.756 93.851 339.56-.16 93.584-93.79 93.658-245.461-.14-339.26zm-169.71 367.71c-109.178 0-198-88.822-198-198s88.822-198 198-198c104.723 0 190.913 81.413 197.586 185.098 7.37 116.134-84.767 210.902-197.586 210.902z" fill="#ffab00" data-original="#000000" style="" class=""/><path d="m240.054 58.051c-100.355 0-182 81.645-182 182s81.645 182 182 182c104.583 0 188.347-87.866 181.618-193.882-6.139-95.39-85.915-170.118-181.618-170.118zm-132.053 206.035 3.246-26.688c2.173-17.87 17.388-31.347 35.391-31.347h78.886c4.798 0 8.521 4.201 7.941 8.966l-3.246 26.688c-2.173 17.87-17.388 31.347-35.391 31.347h-78.886c-4.798-.001-8.52-4.202-7.941-8.966zm232.71 55.205c-15.955 19.051-44.748 41.761-91.309 41.761h-93.899c-4.866 0-8.614-4.317-7.918-9.143l7.5-52c.568-3.936 3.941-6.857 7.918-6.857h88.908c28.611 0 48.55-34.628 48.55-65.705 0-23.385-10.93-40.295-34.462-40.295h-85.958c-4.86 0-8.607-4.308-7.92-9.128l7.407-52c.562-3.942 3.938-6.872 7.92-6.872h74.446c114.714-.001 138.122 129.43 78.817 200.239z" fill="#ffab00" data-original="#000000" style="" class=""/></g></g></svg>
