<?xml version="1.0"?>
<svg xmlns="http://www.w3.org/2000/svg" xmlns:xlink="http://www.w3.org/1999/xlink" xmlns:svgjs="http://svgjs.com/svgjs" version="1.1" width="512" height="512" x="0" y="0" viewBox="0 0 512 512" style="enable-background:new 0 0 512 512" xml:space="preserve" class=""><g><path xmlns="http://www.w3.org/2000/svg" d="M48,392a8,8,0,0,0-8,8v88a8,8,0,0,0,8,8H464a8,8,0,0,0,8-8V400a8,8,0,0,0-8-8H360V96a8,8,0,0,0-8-8H304V72a8,8,0,0,0,8-8V24a8,8,0,0,0-8-8H120a8,8,0,0,0-8,8V64a8,8,0,0,0,8,8V95.337l-15.891,95.348a8,8,0,0,0,1.619,6.281L120,214.991V320A40.067,40.067,0,0,0,152,359.2V392Zm8,16h96v16H128a8,8,0,0,0-8,8v16H56Zm304,0h96v40H392V432a8,8,0,0,0-8-8H360ZM344,104v55.482A64.107,64.107,0,0,1,288.518,104ZM273.6,424H238.4A79.846,79.846,0,0,0,168,360.4V274.766l.049.041A88,88,0,1,0,256,184a87.147,87.147,0,0,0-60.887,24.438l-8.32-25.246A72.116,72.116,0,0,0,248,112v-8h24.4A80.14,80.14,0,0,0,344,175.6V360.4A79.67,79.67,0,0,0,273.6,424ZM344,376.507V424H290.011A63.714,63.714,0,0,1,344,376.507ZM221.993,424H168V376.51A63.873,63.873,0,0,1,221.993,424ZM288,296a8,8,0,0,0,8-8v-8h8a8,8,0,0,0,0-16h-9.376A24,24,0,0,0,248,272a8,8,0,0,1-16,0V256a8,8,0,0,0-16,0v8h-8c-.059,0-.116.008-.174.009a25.066,25.066,0,0,0,.207-16.364l-7.216-21.9A71.364,71.364,0,0,1,256,200a72,72,0,1,1-71.464,80.638,25,25,0,0,0,11.21-2.815,25.4,25.4,0,0,0,4.709-3.185A8,8,0,0,0,208,280h9.376A24,24,0,0,0,264,272a8,8,0,0,1,16,0v16A8,8,0,0,0,288,296ZM128,32H296V56H128Zm-7.525,157.815,15.416-92.5A8.046,8.046,0,0,0,136,96V72H288V88H240a8,8,0,0,0-8,8v16a56.063,56.063,0,0,1-56,56,8,8,0,0,0-7.6,10.5l24.435,74.148a9.142,9.142,0,0,1-15.85,8.536ZM136,320V235.2L152.471,256H152v86.624A24.039,24.039,0,0,1,136,320ZM376,440v16a8,8,0,0,0,8,8h72v16H56V464h72a8,8,0,0,0,8-8V440Z" fill="#ffab00" data-original="#000000" style=""/><path xmlns="http://www.w3.org/2000/svg" d="M440,184H408a8,8,0,0,0-8,8V296h-8a8,8,0,0,0-6.946,11.969l32,56a8,8,0,0,0,13.892,0l32-56A8,8,0,0,0,456,296h-8V192A8,8,0,0,0,440,184ZM424,343.875,405.786,312H408a8,8,0,0,0,8-8V200h16V304a8,8,0,0,0,8,8h2.214Z" fill="#ffab00" data-original="#000000" style=""/></g></svg>
