<?xml version="1.0"?>
<svg xmlns="http://www.w3.org/2000/svg" xmlns:xlink="http://www.w3.org/1999/xlink" xmlns:svgjs="http://svgjs.com/svgjs" version="1.1" width="512" height="512" x="0" y="0" viewBox="0 0 60 60" style="enable-background:new 0 0 512 512" xml:space="preserve" class=""><g><path xmlns="http://www.w3.org/2000/svg" d="m29 24.313v-12.707l-10.213 16.634z" fill="#ffab00" data-original="#000000" style="" class=""/><path xmlns="http://www.w3.org/2000/svg" d="m29 36.379v-9.923l-9.833 3.781z" fill="#ffab00" data-original="#000000" style="" class=""/><path xmlns="http://www.w3.org/2000/svg" d="m21.532 38.812 7.468 10.115v-6.044a6.011 6.011 0 0 1 -2.172-.79z" fill="#ffab00" data-original="#000000" style="" class=""/><path xmlns="http://www.w3.org/2000/svg" d="m31 42.882v6.045l7.468-10.115-5.291 3.278a6.015 6.015 0 0 1 -2.177.792z" fill="#ffab00" data-original="#000000" style="" class=""/><path xmlns="http://www.w3.org/2000/svg" d="m31 36.37 9.877-6.116-9.877-3.798z" fill="#ffab00" data-original="#000000" style="" class=""/><path xmlns="http://www.w3.org/2000/svg" d="m30 6a24 24 0 1 0 24 24 24.028 24.028 0 0 0 -24-24zm11.052 32.68-9.113 12.341a2.41 2.41 0 0 1 -3.878 0l-9.113-12.341a1.685 1.685 0 0 1 2.245-2.431l6.684 4.141a4.136 4.136 0 0 0 4.251 0l6.679-4.138a1.685 1.685 0 0 1 2.245 2.431zm1.985-7.411-11.97 7.431a2.013 2.013 0 0 1 -2.134 0l-11.97-7.427a2.047 2.047 0 0 1 -.661-2.8l11.97-19.5a2.026 2.026 0 0 1 3.456 0l11.972 19.491a2.048 2.048 0 0 1 -.663 2.805z" fill="#ffab00" data-original="#000000" style="" class=""/><path xmlns="http://www.w3.org/2000/svg" d="m31 24.313 10.156 3.905-10.156-16.606z" fill="#ffab00" data-original="#000000" style="" class=""/><path xmlns="http://www.w3.org/2000/svg" d="m30 1a29 29 0 1 0 29 29 29 29 0 0 0 -29-29zm0 55a26 26 0 1 1 26-26 26.03 26.03 0 0 1 -26 26z" fill="#ffab00" data-original="#000000" style="" class=""/></g></svg>
