<?xml version="1.0"?>
<svg xmlns="http://www.w3.org/2000/svg" xmlns:xlink="http://www.w3.org/1999/xlink" xmlns:svgjs="http://svgjs.com/svgjs" version="1.1" width="512" height="512" x="0" y="0" viewBox="0 0 512 512" style="enable-background:new 0 0 512 512" xml:space="preserve" class=""><g><g xmlns="http://www.w3.org/2000/svg" id="solid"><path d="m368 156a4 4 0 0 0 -4-4h-4v8h4a4 4 0 0 0 4-4z" fill="#ffab00" data-original="#000000" style="" class=""/><path d="m376 288h32v16h-32z" fill="#ffab00" data-original="#000000" style="" class=""/><path d="m216 384v48h80v-48h-16v8a24 24 0 0 1 -48 0v-8z" fill="#ffab00" data-original="#000000" style="" class=""/><path d="m174.246 448-4 16h171.508l-4-16z" fill="#ffab00" data-original="#000000" style="" class=""/><path d="m368 180a4 4 0 0 0 -4-4h-4v8h4a4 4 0 0 0 4-4z" fill="#ffab00" data-original="#000000" style="" class=""/><path d="m468 48h-424a12.013 12.013 0 0 0 -12 12v296a12.013 12.013 0 0 0 12 12h424a12.013 12.013 0 0 0 12-12v-296a12.013 12.013 0 0 0 -12-12zm-4 296a8 8 0 0 1 -8 8h-400a8 8 0 0 1 -8-8v-272a8 8 0 0 1 8-8h400a8 8 0 0 1 8 8z" fill="#ffab00" data-original="#000000" style="" class=""/><path d="m360 224a56 56 0 1 0 -56-56 56.064 56.064 0 0 0 56 56zm-24-80a8 8 0 0 1 8-8h20a19.962 19.962 0 0 1 15.962 32 19.962 19.962 0 0 1 -15.962 32h-20a8 8 0 0 1 0-16v-32a8 8 0 0 1 -8-8z" fill="#ffab00" data-original="#000000" style="" class=""/><path d="m64 336h384v-256h-384zm360-24a8 8 0 0 1 -8 8h-48a8 8 0 0 1 -8-8v-32a8 8 0 0 1 8-8h48a8 8 0 0 1 8 8zm-40-64a8 8 0 0 1 8-8h16a8 8 0 0 1 0 16h-16a8 8 0 0 1 -8-8zm-216-104h16a8 8 0 0 1 0 16h-16a8 8 0 0 1 0-16zm-48 0h16a8 8 0 0 1 0 16h-16a8 8 0 0 1 0-16zm-40-40a8 8 0 0 1 16 0v148.1l25.216-40.345a8 8 0 0 1 11.222-2.416l17.343 11.562 11.563-17.344a8 8 0 0 1 12.313-1.219l6.847 6.847 11.907-35.72a8 8 0 0 1 13.246-3.127l7.421 7.421 11.494-28.735a8 8 0 0 1 15.319 1.656l12.674 76.045 4.779-7.168a8 8 0 0 1 13.312 0l8.988 13.482 17.5-29.16c.08-.134.171-.257.258-.385a72.234 72.234 0 1 1 10.293 13.9l-20.835 34.722a8 8 0 0 1 -13.516.322l-9.344-14.016-9.344 14.016a8 8 0 0 1 -14.547-3.123l-11.3-67.8-5.381 13.453a8 8 0 0 1 -13.085 2.686l-6.843-6.844-11.907 35.72a8 8 0 0 1 -13.246 3.127l-9.1-9.1-10.587 15.881a8 8 0 0 1 -11.094 2.218l-17.145-11.429-34.421 55.073v21.7h48v-24a8 8 0 0 1 16 0v24h48v-56a8 8 0 0 1 16 0v56h48v-24a8 8 0 0 1 16 0v24h48a8 8 0 0 1 0 16h-248a8 8 0 0 1 -8-8z" fill="#ffab00" data-original="#000000" style="" class=""/></g></g></svg>
