<?xml version="1.0"?>
<svg xmlns="http://www.w3.org/2000/svg" xmlns:xlink="http://www.w3.org/1999/xlink" xmlns:svgjs="http://svgjs.com/svgjs" version="1.1" width="512" height="512" x="0" y="0" viewBox="0 0 512 512" style="enable-background:new 0 0 512 512" xml:space="preserve" class=""><g><path xmlns="http://www.w3.org/2000/svg" d="m256 0c-140.699219 0-256 115.300781-256 256s115.300781 256 256 256 256-115.300781 256-256-115.300781-256-256-256zm159.550781 415.550781c-42.851562 42.851563-99.515625 66.449219-159.550781 66.449219s-116.699219-23.597656-159.550781-66.449219c-42.851563-42.851562-66.449219-99.515625-66.449219-159.550781s23.597656-116.699219 66.449219-159.550781c42.851562-42.851563 99.515625-66.449219 159.550781-66.449219s116.699219 23.597656 159.550781 66.449219c42.851563 42.851562 66.449219 99.515625 66.449219 159.550781s-23.597656 116.699219-66.449219 159.550781zm0 0" fill="#ffab00" data-original="#000000" style="" class=""/><path xmlns="http://www.w3.org/2000/svg" d="m394.335938 117.664062c-37.183594-37.183593-86.3125-57.664062-138.335938-57.664062s-101.152344 20.480469-138.335938 57.664062c-37.183593 37.183594-57.664062 86.3125-57.664062 138.335938s20.480469 101.152344 57.664062 138.335938c37.183594 37.183593 86.3125 57.664062 138.335938 57.664062s101.152344-20.480469 138.335938-57.664062c37.1875-37.183594 57.664062-86.3125 57.664062-138.335938s-20.476562-101.152344-57.664062-138.335938zm-63.335938 243.335938h-154.800781l28.800781-100.5-51 10.199219-6-29.398438 66-13.199219 27.601562-96.300781 28.796876 8.398438-23.398438 81.300781 51-10.199219 6 29.398438-66 13.199219-22.199219 77.101562h115.199219zm0 0" fill="#ffab00" data-original="#000000" style="" class=""/></g></svg>
