<?xml version="1.0"?>
<svg xmlns="http://www.w3.org/2000/svg" xmlns:xlink="http://www.w3.org/1999/xlink" xmlns:svgjs="http://svgjs.com/svgjs" version="1.1" width="512" height="512" x="0" y="0" viewBox="0 0 64 64" style="enable-background:new 0 0 512 512" xml:space="preserve" class=""><g><g xmlns="http://www.w3.org/2000/svg"><path d="m32 42c-7.429 0-20 1.053-20 5s12.571 5 20 5 20-1.053 20-5-12.571-5-20-5zm0 8c-11.126 0-17.635-1.974-18.004-2.968.369-1.058 6.878-3.032 18.004-3.032 11.014 0 17.503 1.935 17.991 3-.488 1.065-6.977 3-17.991 3z" fill="#ffab00" data-original="#000000" style="" class=""/><path d="m37.492 38.14 2.57-3.305c.297.099.608.165.938.165 1.019 0 1.919-.513 2.461-1.292l5.562 1.517c.117 1.547 1.399 2.775 2.977 2.775 1.654 0 3-1.346 3-3 0-.773-.302-1.472-.784-2.005l3.834-7.122c.306.076.621.127.95.127 2.206 0 4-1.794 4-4s-1.794-4-4-4-4 1.794-4 4c0 1.158.502 2.193 1.29 2.924l-3.835 7.122c-.149-.023-.299-.046-.455-.046-1.019 0-1.918.513-2.461 1.292l-5.562-1.517c-.117-1.547-1.4-2.775-2.977-2.775-1.654 0-3 1.346-3 3 0 .595.179 1.146.479 1.613l-3.446 4.43c-1.012-.028-2.024-.043-3.033-.043-15.028 0-31 3.154-31 9v6c0 5.846 15.972 9 31 9s31-3.154 31-9v-6c0-5.135-12.325-8.193-25.508-8.86zm21.508-18.14c1.103 0 2 .897 2 2s-.897 2-2 2-2-.897-2-2 .897-2 2-2zm-7 14c.552 0 1 .448 1 1s-.448 1-1 1-1-.448-1-1 .448-1 1-1zm-11-3c.552 0 1 .448 1 1s-.448 1-1 1-1-.448-1-1 .448-1 1-1zm-38 22v-2.65c1.011.787 2.37 1.496 4 2.123v3.843c-2.601-1.094-4-2.278-4-3.316zm52 .162v3.901c-1.174.388-2.513.754-4 1.09v-3.96c1.426-.305 2.766-.65 4-1.031zm-6 5.407c-1.246.236-2.583.448-4 .634v-4.003c1.377-.176 2.715-.381 4-.613zm-6 .873c-1.274.136-2.61.249-4 .338v-4.007c1.352-.088 2.689-.202 4-.339zm-6 .448c-1.289.057-2.625.091-4 .103v-3.999c1.333-.012 2.67-.05 4-.111zm-6 .103c-1.375-.012-2.711-.046-4-.103v-4.008c1.33.061 2.667.099 4 .111zm-6-.213c-1.39-.089-2.726-.202-4-.338v-4.008c1.311.138 2.648.252 4 .339zm-6-.577c-1.417-.186-2.754-.398-4-.634v-3.982c1.285.233 2.623.437 4 .613zm-6-1.049c-1.487-.336-2.826-.703-4-1.09v-3.901c1.234.381 2.574.726 4 1.032zm44-1.837v-3.843c1.63-.627 2.989-1.336 4-2.123v2.649c0 1.038-1.399 2.222-4 3.317zm-25-2.317c-17.968 0-29-4.077-29-7s11.032-7 29-7 29 4.077 29 7-11.032 7-29 7z" fill="#ffab00" data-original="#000000" style="" class=""/><path d="m31 23h2v-2c1.654 0 3-1.346 3-3s-1.346-3-3-3h-2c-.552 0-1-.448-1-1s.448-1 1-1h3v1h2v-3h-3v-2h-2v2c-1.654 0-3 1.346-3 3s1.346 3 3 3h2c.552 0 1 .448 1 1s-.448 1-1 1h-3v-1h-2v3h3z" fill="#ffab00" data-original="#000000" style="" class=""/><path d="m21 27h7.22l1.568 6.273c.254 1.017 1.164 1.727 2.212 1.727s1.958-.71 2.212-1.728l1.568-6.272h7.22c1.654 0 3-1.346 3-3v-16c0-1.654-1.346-3-3-3h-22c-1.654 0-3 1.346-3 3v16c0 1.654 1.346 3 3 3zm-1-19c0-.552.448-1 1-1h22c.552 0 1 .448 1 1v16c0 .552-.448 1-1 1h-8.78l-1.947 7.787c-.063.25-.482.249-.545.001l-1.948-7.788h-8.78c-.552 0-1-.448-1-1z" fill="#ffab00" data-original="#000000" style="" class=""/><path d="m10 28h6v-2h-8v1.132l-3.197-2.132 3.197-2.132v1.132h8v-2h-6v-2.868l-8.803 5.868 8.803 5.868z" fill="#ffab00" data-original="#000000" style="" class=""/><path d="m54 12.868 8.803-5.868-8.803-5.868v2.868h-6v2h8v-1.132l3.197 2.132-3.197 2.132v-1.132h-8v2h6z" fill="#ffab00" data-original="#000000" style="" class=""/></g></g></svg>
