<svg id="visual" viewBox="0 0 900 600" width="900" height="600" xmlns="http://www.w3.org/2000/svg" xmlns:xlink="http://www.w3.org/1999/xlink" version="1.1"><rect x="0" y="0" width="900" height="600" fill="#131519"></rect><path d="M0 458L47 458L47 478L95 478L95 475L142 475L142 462L189 462L189 447L237 447L237 474L284 474L284 466L332 466L332 468L379 468L379 450L426 450L426 483L474 483L474 455L521 455L521 484L568 484L568 470L616 470L616 444L663 444L663 458L711 458L711 472L758 472L758 449L805 449L805 483L853 483L853 459L900 459L900 484L900 601L900 601L853 601L853 601L805 601L805 601L758 601L758 601L711 601L711 601L663 601L663 601L616 601L616 601L568 601L568 601L521 601L521 601L474 601L474 601L426 601L426 601L379 601L379 601L332 601L332 601L284 601L284 601L237 601L237 601L189 601L189 601L142 601L142 601L95 601L95 601L47 601L47 601L0 601Z" fill="#131519"></path><path d="M0 460L47 460L47 465L95 465L95 466L142 466L142 499L189 499L189 490L237 490L237 462L284 462L284 461L332 461L332 501L379 501L379 460L426 460L426 475L474 475L474 502L521 502L521 464L568 464L568 480L616 480L616 477L663 477L663 471L711 471L711 461L758 461L758 486L805 486L805 485L853 485L853 465L900 465L900 460L900 601L900 601L853 601L853 601L805 601L805 601L758 601L758 601L711 601L711 601L663 601L663 601L616 601L616 601L568 601L568 601L521 601L521 601L474 601L474 601L426 601L426 601L379 601L379 601L332 601L332 601L284 601L284 601L237 601L237 601L189 601L189 601L142 601L142 601L95 601L95 601L47 601L47 601L0 601Z" fill="#252537"></path><path d="M0 501L47 501L47 505L95 505L95 478L142 478L142 512L189 512L189 480L237 480L237 481L284 481L284 488L332 488L332 511L379 511L379 486L426 486L426 485L474 485L474 488L521 488L521 504L568 504L568 513L616 513L616 494L663 494L663 486L711 486L711 487L758 487L758 504L805 504L805 482L853 482L853 478L900 478L900 503L900 601L900 601L853 601L853 601L805 601L805 601L758 601L758 601L711 601L711 601L663 601L663 601L616 601L616 601L568 601L568 601L521 601L521 601L474 601L474 601L426 601L426 601L379 601L379 601L332 601L332 601L284 601L284 601L237 601L237 601L189 601L189 601L142 601L142 601L95 601L95 601L47 601L47 601L0 601Z" fill="#453252"></path><path d="M0 510L47 510L47 501L95 501L95 524L142 524L142 508L189 508L189 496L237 496L237 496L284 496L284 508L332 508L332 509L379 509L379 519L426 519L426 499L474 499L474 513L521 513L521 496L568 496L568 524L616 524L616 497L663 497L663 509L711 509L711 523L758 523L758 502L805 502L805 496L853 496L853 501L900 501L900 519L900 601L900 601L853 601L853 601L805 601L805 601L758 601L758 601L711 601L711 601L663 601L663 601L616 601L616 601L568 601L568 601L521 601L521 601L474 601L474 601L426 601L426 601L379 601L379 601L332 601L332 601L284 601L284 601L237 601L237 601L189 601L189 601L142 601L142 601L95 601L95 601L47 601L47 601L0 601Z" fill="#703b64"></path><path d="M0 528L47 528L47 528L95 528L95 528L142 528L142 523L189 523L189 520L237 520L237 510L284 510L284 524L332 524L332 519L379 519L379 510L426 510L426 539L474 539L474 537L521 537L521 536L568 536L568 511L616 511L616 510L663 510L663 509L711 509L711 511L758 511L758 511L805 511L805 528L853 528L853 521L900 521L900 531L900 601L900 601L853 601L853 601L805 601L805 601L758 601L758 601L711 601L711 601L663 601L663 601L616 601L616 601L568 601L568 601L521 601L521 601L474 601L474 601L426 601L426 601L379 601L379 601L332 601L332 601L284 601L284 601L237 601L237 601L189 601L189 601L142 601L142 601L95 601L95 601L47 601L47 601L0 601Z" fill="#9e426a"></path><path d="M0 537L47 537L47 551L95 551L95 550L142 550L142 525L189 525L189 531L237 531L237 541L284 541L284 545L332 545L332 546L379 546L379 540L426 540L426 546L474 546L474 545L521 545L521 549L568 549L568 525L616 525L616 523L663 523L663 526L711 526L711 535L758 535L758 549L805 549L805 525L853 525L853 547L900 547L900 529L900 601L900 601L853 601L853 601L805 601L805 601L758 601L758 601L711 601L711 601L663 601L663 601L616 601L616 601L568 601L568 601L521 601L521 601L474 601L474 601L426 601L426 601L379 601L379 601L332 601L332 601L284 601L284 601L237 601L237 601L189 601L189 601L142 601L142 601L95 601L95 601L47 601L47 601L0 601Z" fill="#c94d63"></path><path d="M0 541L47 541L47 543L95 543L95 564L142 564L142 565L189 565L189 555L237 555L237 558L284 558L284 542L332 542L332 555L379 555L379 558L426 558L426 542L474 542L474 544L521 544L521 542L568 542L568 555L616 555L616 548L663 548L663 554L711 554L711 553L758 553L758 559L805 559L805 545L853 545L853 559L900 559L900 545L900 601L900 601L853 601L853 601L805 601L805 601L758 601L758 601L711 601L711 601L663 601L663 601L616 601L616 601L568 601L568 601L521 601L521 601L474 601L474 601L426 601L426 601L379 601L379 601L332 601L332 601L284 601L284 601L237 601L237 601L189 601L189 601L142 601L142 601L95 601L95 601L47 601L47 601L0 601Z" fill="#ea6352"></path><path d="M0 561L47 561L47 557L95 557L95 572L142 572L142 573L189 573L189 558L237 558L237 573L284 573L284 574L332 574L332 563L379 563L379 572L426 572L426 572L474 572L474 577L521 577L521 571L568 571L568 565L616 565L616 568L663 568L663 568L711 568L711 558L758 558L758 575L805 575L805 571L853 571L853 574L900 574L900 576L900 601L900 601L853 601L853 601L805 601L805 601L758 601L758 601L711 601L711 601L663 601L663 601L616 601L616 601L568 601L568 601L521 601L521 601L474 601L474 601L426 601L426 601L379 601L379 601L332 601L332 601L284 601L284 601L237 601L237 601L189 601L189 601L142 601L142 601L95 601L95 601L47 601L47 601L0 601Z" fill="#fd8337"></path><path d="M0 585L47 585L47 587L95 587L95 585L142 585L142 588L189 588L189 585L237 585L237 578L284 578L284 575L332 575L332 586L379 586L379 582L426 582L426 576L474 576L474 576L521 576L521 577L568 577L568 585L616 585L616 581L663 581L663 585L711 585L711 577L758 577L758 589L805 589L805 582L853 582L853 575L900 575L900 584L900 601L900 601L853 601L853 601L805 601L805 601L758 601L758 601L711 601L711 601L663 601L663 601L616 601L616 601L568 601L568 601L521 601L521 601L474 601L474 601L426 601L426 601L379 601L379 601L332 601L332 601L284 601L284 601L237 601L237 601L189 601L189 601L142 601L142 601L95 601L95 601L47 601L47 601L0 601Z" fill="#ffab00"></path></svg>