<?xml version="1.0"?>
<svg xmlns="http://www.w3.org/2000/svg" xmlns:xlink="http://www.w3.org/1999/xlink" xmlns:svgjs="http://svgjs.com/svgjs" version="1.1" width="512" height="512" x="0" y="0" viewBox="0 0 448 448.00091" style="enable-background:new 0 0 512 512" xml:space="preserve"><g><path xmlns="http://www.w3.org/2000/svg" d="m144 264c0 4.417969-3.582031 8-8 8s-8-3.582031-8-8 3.582031-8 8-8 8 3.582031 8 8zm0 0" fill="#ffab00" data-original="#000000" style=""/><path xmlns="http://www.w3.org/2000/svg" d="m168 200c-53.019531 0-96 42.980469-96 96s42.980469 96 96 96 96-42.980469 96-96c-.058594-52.996094-43.003906-95.941406-96-96zm-32 40c13.253906 0 24 10.746094 24 24s-10.746094 24-24 24-24-10.746094-24-24 10.746094-24 24-24zm-10.34375 109.65625-11.3125-11.3125 96-96 11.3125 11.3125zm74.34375 2.34375c-13.253906 0-24-10.746094-24-24s10.746094-24 24-24 24 10.746094 24 24-10.746094 24-24 24zm0 0" fill="#ffab00" data-original="#000000" style=""/><path xmlns="http://www.w3.org/2000/svg" d="m208 328c0 4.417969-3.582031 8-8 8s-8-3.582031-8-8 3.582031-8 8-8 8 3.582031 8 8zm0 0" fill="#ffab00" data-original="#000000" style=""/><path xmlns="http://www.w3.org/2000/svg" d="m208.039062 0c-5.640624-.0507812-11.0625 2.207031-15 6.25-14.128906 13-35.867187 13-50 0-3.972656-4-9.378906-6.25-15.015624-6.25-5.636719 0-11.042969 2.25-15.015626 6.25-3.832031 3.375-8.238281 6.035156-13.007812 7.855469l32.945312 65.894531h70.109376l32.945312-65.902344c-4.761719-1.816406-9.160156-4.476562-12.984375-7.847656-3.929687-4.042969-9.339844-6.296875-14.976563-6.25zm0 0" fill="#ffab00" data-original="#000000" style=""/><path xmlns="http://www.w3.org/2000/svg" d="m336 280c-.09375-83.90625-68.089844-151.90625-152-152h-32c-83.910156.09375-151.90625 68.09375-152 152v144c0 13.253906 10.746094 24 24 24h288c13.253906 0 24-10.746094 24-24zm-168 128c-61.855469 0-112-50.144531-112-112s50.144531-112 112-112 112 50.144531 112 112c-.066406 61.828125-50.171875 111.933594-112 112zm0 0" fill="#ffab00" data-original="#000000" style=""/><path xmlns="http://www.w3.org/2000/svg" d="m216 104c0-4.417969-3.582031-8-8-8h-80c-4.417969 0-8 3.582031-8 8s3.582031 8 8 8h80c4.417969 0 8-3.582031 8-8zm0 0" fill="#ffab00" data-original="#000000" style=""/><path xmlns="http://www.w3.org/2000/svg" d="m338.402344 108c-8.765625 1.636719-17.820313-.324219-25.121094-5.4375-4.082031-3.136719-9.292969-4.414062-14.363281-3.515625-5.066407.898437-9.523438 3.886719-12.277344 8.234375-5.121094 7.296875-12.964844 12.230469-21.761719 13.679688-2.082031.398437-4.195312.613281-6.320312.640624-6.707032-.175781-13.226563-2.253906-18.796875-6-2.738281-1.890624-5.847657-3.171874-9.121094-3.761718.898437-2.515625 1.355469-5.167969 1.359375-7.839844-.027344-4.171875-1.097656-8.269531-3.121094-11.917969 4.671875-1.636719 9.628906-2.292969 14.5625-1.921875 5.101563.65625 10.25-.859375 14.1875-4.171875 3.933594-3.316406 6.304688-8.125 6.53125-13.265625.859375-8.859375 5.171875-17.019531 12-22.722656 6.792969-5.765625 15.601563-8.585938 24.480469-7.839844 5.089844.589844 10.199219-.910156 14.160156-4.160156l10.320313 12.242188c-6.742188 5.863281-15.582032 8.722656-24.480469 7.917968-5.105469-.722656-10.273437.757813-14.226563 4.066406-3.949218 3.3125-6.3125 8.144532-6.492187 13.292969-.84375 8.863281-5.15625 17.03125-12 22.722657-3.667969 3.25-8.054687 5.582031-12.800781 6.796874 2.269531.617188 4.652344.699219 6.960937.242188 5.070313-.921875 9.53125-3.90625 12.320313-8.242188 10.734375-15.101562 31.597656-18.800781 46.878906-8.316406 4.09375 3.140625 9.316406 4.414063 14.398438 3.519532zm0 0" fill="#ffab00" data-original="#000000" style=""/></g></svg>
