<?xml version="1.0"?>
<svg xmlns="http://www.w3.org/2000/svg" xmlns:xlink="http://www.w3.org/1999/xlink" xmlns:svgjs="http://svgjs.com/svgjs" version="1.1" width="512" height="512" x="0" y="0" viewBox="0 0 480.105 480.105" style="enable-background:new 0 0 512 512" xml:space="preserve" class=""><g><g xmlns="http://www.w3.org/2000/svg"><path d="m220.054 309.717v61.334c0 2.209 1.791 4 4 4h32c2.209 0 4-1.791 4-4v-61.333c0-2.281-1.902-4.086-4.181-3.992-10.371.427-20.935.441-31.636 0-2.279-.094-4.183 1.711-4.183 3.991z" fill="#ffab00" data-original="#000000" style=""/><path d="m330.227 245.45c-12.912-5.033-30.236-8.895-49.7-11.146-2.379-.275-4.474 1.58-4.474 3.976v45.553c0 2.395 2.094 4.249 4.474 3.976 15.364-1.766 29.427-4.542 41.297-8.233 23.073-7.174 29.229-15.02 29.229-18.524.001-3.453-5.454-9.61-20.826-15.602z" fill="#ffab00" data-original="#000000" style=""/><path d="m220.054 189.051v96.646c0 2.136 1.679 3.909 3.814 4.001 10.75.466 21.445.474 32.37 0 2.134-.093 3.816-1.866 3.816-4.002v-96.645c0-4.418 3.582-8 8-8h59c2.209 0 4-1.791 4-4v-32c0-2.209-1.791-4-4-4h-174c-2.209 0-4 1.791-4 4v32c0 2.209 1.791 4 4 4h59c4.418 0 8 3.582 8 8z" fill="#ffab00" data-original="#000000" style=""/><path d="m149.88 245.45c-15.372 5.992-20.826 12.149-20.826 15.602 0 3.504 6.156 11.35 29.229 18.524 11.87 3.691 25.933 6.467 41.297 8.233 2.379.273 4.474-1.581 4.474-3.976v-45.553c0-2.395-2.095-4.251-4.474-3.976-19.464 2.25-36.788 6.113-49.7 11.146z" fill="#ffab00" data-original="#000000" style=""/><path d="m240.054 58.051c-100.355 0-182 81.645-182 182s81.645 182 182 182c104.594 0 188.345-87.877 181.619-193.882-6.14-95.39-85.917-170.118-181.619-170.118zm36 246.296v78.704c0 4.418-3.582 8-8 8h-56c-4.418 0-8-3.582-8-8v-78.704c-49.299-4.757-91-19.429-91-43.296 0-8.403 5.381-20.517 31.016-30.509 14.756-5.751 34.502-10.077 56.431-12.432 2.024-.217 3.553-1.939 3.553-3.975v-13.084c0-2.209-1.791-4-4-4h-59c-4.418 0-8-3.582-8-8v-56c0-4.418 3.582-8 8-8h198c4.418 0 8 3.582 8 8v56c0 4.418-3.582 8-8 8h-59c-2.209 0-4 1.791-4 4v13.084c0 2.036 1.529 3.757 3.553 3.975 21.929 2.355 41.676 6.681 56.431 12.432 25.635 9.992 31.016 22.106 31.016 30.509 0 23.868-41.701 38.539-91 43.296z" fill="#ffab00" data-original="#000000" style=""/><path d="m409.764 70.341c-93.772-93.772-245.817-93.862-339.6.17-93.53 93.778-93.624 245.446.18 339.25 93.793 93.792 245.762 93.845 339.56-.16 93.578-93.785 93.664-245.455-.14-339.26zm-169.71 367.71c-109.178 0-198-88.822-198-198s88.822-198 198-198c104.725 0 190.913 81.415 197.586 185.098 7.37 116.13-84.763 210.902-197.586 210.902z" fill="#ffab00" data-original="#000000" style=""/></g></g></svg>
